<?xml version="1.0" encoding="UTF-8"?>
<svg width="86px" height="90px" viewBox="0 0 86 90" version="1.1" xmlns="http://www.w3.org/2000/svg" xmlns:xlink="http://www.w3.org/1999/xlink">
    <!-- Generator: Sketch 40 (33762) - http://www.bohemiancoding.com/sketch -->
    <title>customize_asset</title>
    <desc>Created with Sketch.</desc>
    <defs></defs>
    <g id="Scratch" stroke="none" stroke-width="1" fill="none" fill-rule="evenodd" opacity="0.75">
        <g id="homepage_draft" transform="translate(-677.000000, -1609.000000)" fill="#000000">
            <g id="Group-3" transform="translate(554.000000, 1609.000000)">
                <g id="customize_asset" opacity="0.7" transform="translate(123.000000, 0.000000)">
                    <g id="Group">
                        <path d="M60.852,54.357 L53.912,53.609 C53.359,51.442 52.499,49.399 51.386,47.524 L55.769,42.084 C56.211,41.641 56.211,40.924 55.769,40.481 L50.267,34.979 C49.824,34.537 49.107,34.537 48.664,34.979 L43.224,39.361 C41.349,38.249 39.306,37.388 37.139,36.835 L36.391,29.895 C36.391,29.27 35.884,28.762 35.258,28.762 L27.476,28.762 C26.851,28.762 26.343,29.269 26.343,29.895 L25.596,36.835 C23.429,37.389 21.386,38.249 19.51,39.361 L14.07,34.979 C13.628,34.537 12.91,34.537 12.467,34.979 L6.965,40.482 C6.523,40.924 6.523,41.641 6.965,42.084 L11.348,47.524 C10.234,49.399 9.374,51.442 8.822,53.609 L1.882,54.357 C1.256,54.357 0.749,54.864 0.749,55.49 L0.749,63.271 C0.749,63.897 1.256,64.404 1.882,64.404 L8.822,65.152 C9.375,67.319 10.235,69.362 11.348,71.237 L6.965,76.677 C6.523,77.12 6.523,77.837 6.965,78.279 L12.467,83.782 C12.91,84.224 13.627,84.224 14.07,83.782 L19.51,79.4 C21.385,80.512 23.429,81.373 25.596,81.926 L26.343,88.866 C26.343,89.491 26.85,89.999 27.476,89.999 L35.258,89.999 C35.884,89.999 36.391,89.492 36.391,88.866 L37.139,81.926 C39.306,81.372 41.349,80.512 43.224,79.4 L48.664,83.782 C49.106,84.224 49.824,84.224 50.267,83.782 L55.769,78.279 C56.211,77.837 56.211,77.12 55.769,76.677 L51.386,71.237 C52.499,69.362 53.359,67.319 53.912,65.152 L60.852,64.404 C61.478,64.404 61.985,63.897 61.985,63.271 L61.985,55.49 C61.985,54.865 61.478,54.357 60.852,54.357 L60.852,54.357 Z M31.366,72.24 C24.263,72.24 18.507,66.483 18.507,59.381 C18.507,52.279 24.264,46.522 31.366,46.522 C38.468,46.522 44.225,52.279 44.225,59.381 C44.225,66.483 38.468,72.24 31.366,72.24 L31.366,72.24 Z" id="Shape"></path>
                        <path d="M84.57,15.428 L80.386,14.977 C80.053,13.671 79.534,12.439 78.863,11.309 L81.505,8.03 C81.772,7.763 81.772,7.332 81.505,7.064 L78.188,3.748 C77.921,3.481 77.489,3.481 77.222,3.748 L73.943,6.39 C72.813,5.719 71.581,5.2 70.275,4.867 L69.825,0.684 C69.825,0.306 69.52,0 69.142,0 L64.452,0 C64.075,0 63.769,0.306 63.769,0.683 L63.319,4.866 C62.013,5.199 60.781,5.718 59.651,6.389 L56.372,3.747 C56.105,3.48 55.673,3.48 55.406,3.747 L52.089,7.064 C51.822,7.331 51.822,7.762 52.089,8.029 L54.731,11.308 C54.06,12.439 53.542,13.67 53.208,14.976 L49.024,15.427 C48.647,15.427 48.341,15.733 48.341,16.11 L48.341,20.801 C48.341,21.178 48.647,21.484 49.024,21.484 L53.208,21.934 C53.541,23.241 54.06,24.472 54.731,25.602 L52.089,28.881 C51.822,29.148 51.822,29.579 52.089,29.846 L55.406,33.163 C55.673,33.43 56.105,33.43 56.372,33.163 L59.651,30.521 C60.781,31.192 62.013,31.711 63.319,32.044 L63.769,36.227 C63.769,36.604 64.075,36.91 64.452,36.91 L69.142,36.91 C69.52,36.91 69.826,36.604 69.826,36.227 L70.276,32.044 C71.582,31.711 72.814,31.192 73.944,30.521 L77.223,33.163 C77.49,33.43 77.922,33.43 78.189,33.163 L81.506,29.846 C81.773,29.579 81.773,29.148 81.506,28.881 L78.864,25.602 C79.535,24.471 80.053,23.24 80.387,21.934 L84.571,21.484 C84.948,21.484 85.254,21.178 85.254,20.801 L85.254,16.11 C85.252,15.733 84.947,15.428 84.57,15.428 L84.57,15.428 Z M66.797,26.207 C62.516,26.207 59.046,22.737 59.046,18.457 C59.046,14.176 62.516,10.707 66.797,10.707 C71.078,10.707 74.548,14.176 74.548,18.457 C74.548,22.737 71.078,26.207 66.797,26.207 L66.797,26.207 Z" id="Shape"></path>
                    </g>
                </g>
            </g>
        </g>
    </g>
</svg>