<?xml version="1.0" encoding="UTF-8"?>
<svg width="92px" height="72px" viewBox="0 0 92 72" version="1.1" xmlns="http://www.w3.org/2000/svg" xmlns:xlink="http://www.w3.org/1999/xlink">
    <!-- Generator: Sketch 40 (33762) - http://www.bohemiancoding.com/sketch -->
    <title>discover_asset</title>
    <desc>Created with Sketch.</desc>
    <defs></defs>
    <g id="Scratch" stroke="none" stroke-width="1" fill="none" fill-rule="evenodd" opacity="0.75">
        <g id="homepage_draft" transform="translate(-1088.000000, -1627.000000)" fill="#000000">
            <g id="Group-4" transform="translate(967.000000, 1626.000000)">
                <g id="discover_asset" opacity="0.7" transform="translate(121.000000, 0.000000)">
                    <g id="Group">
                        <g transform="translate(0.000000, 0.106100)" id="Shape">
                            <path d="M26.7282258,0.90613848 L22.6985887,13.8140429 L22.8261092,13.8519703 L0.0255037058,13.8519703 L0.0255037058,17.0884283 L0.0255037058,72.108211 L91.5339701,72.108211 L91.5339701,13.8519703 L68.1722766,13.8519703 L64.2063988,0.90613848 L26.7282258,0.90613848 L26.7282258,0.90613848 Z M31.5484876,7.3790544 L59.3606359,7.3790544 L61.3499471,13.8519703 L29.5209175,13.8519703 L31.5484876,7.3790544 L31.5484876,7.3790544 Z M6.55453596,20.3248862 L19.6126005,20.3248862 L19.6126005,65.6352951 L6.55453596,65.6352951 L6.55453596,20.3248862 L6.55453596,20.3248862 Z M26.1416327,20.3248862 L65.315825,20.3248862 L65.315825,65.6352951 L26.1416327,65.6352951 L26.1416327,20.3248862 L26.1416327,20.3248862 Z M71.8448572,20.3248862 L85.0049379,20.3248862 L85.0049379,65.6352951 L71.8448572,65.6352951 L71.8448572,20.3248862 L71.8448572,20.3248862 Z"></path>
                        </g>
                    </g>
                </g>
            </g>
        </g>
    </g>
</svg>