<?xml version="1.0" encoding="UTF-8"?>
<svg width="60px" height="60px" viewBox="0 0 60 60" version="1.1" xmlns="http://www.w3.org/2000/svg" xmlns:xlink="http://www.w3.org/1999/xlink">
    <!-- Generator: Sketch 40 (33762) - http://www.bohemiancoding.com/sketch -->
    <title>download</title>
    <desc>Created with Sketch.</desc>
    <defs></defs>
    <g id="Scratch" stroke="none" stroke-width="1" fill="none" fill-rule="evenodd">
        <g id="resources_draft" transform="translate(-321.000000, -913.000000)" fill="#2A9432">
            <g id="download" transform="translate(321.000000, 913.000000)">
                <g id="Group">
                    <path d="M18.4374,34.749 C22.002,39.0318 25.5672,43.3146 29.1318,47.5974 C29.3946,47.9118 29.7024,48.0264 30,48.006 C30.2976,48.0264 30.6066,47.9124 30.8682,47.5974 C34.4328,43.3146 37.998,39.0318 41.5626,34.749 C42.2226,33.9576 41.8392,32.6526 40.695,32.6526 L36.2076,32.6526 L36.2076,13.221 C36.2076,12.5514 35.649,11.9928 34.9794,11.9928 L25.0206,11.9928 C24.351,11.9928 23.7924,12.5514 23.7924,13.221 L23.7924,32.6526 L19.305,32.6526 C18.1608,32.6526 17.7774,33.9576 18.4374,34.749 L18.4374,34.749 Z" id="Shape"></path>
                    <path d="M30,60 C46.5684,60 60,46.5684 60,30 C60,13.4316 46.5684,0 30,0 C13.4316,0 0,13.4316 0,30 C0,46.5684 13.4316,60 30,60 L30,60 Z M30,4.8 C43.9176,4.8 55.2,16.0824 55.2,30 C55.2,43.917 43.9176,55.2 30,55.2 C16.083,55.2 4.8,43.917 4.8,30 C4.8,16.0824 16.083,4.8 30,4.8 L30,4.8 Z" id="Shape"></path>
                </g>
            </g>
        </g>
    </g>
</svg>