<?xml version="1.0" encoding="UTF-8"?>
<svg width="71px" height="47px" viewBox="0 0 71 47" version="1.1" xmlns="http://www.w3.org/2000/svg" xmlns:xlink="http://www.w3.org/1999/xlink">
    <!-- Generator: Sketch 40 (33762) - http://www.bohemiancoding.com/sketch -->
    <title>early</title>
    <desc>Created with Sketch.</desc>
    <defs></defs>
    <g id="Scratch" stroke="none" stroke-width="1" fill="none" fill-rule="evenodd">
        <g id="playbook_draft" transform="translate(-178.000000, -1746.000000)">
            <g id="early" transform="translate(178.000000, 1746.000000)">
                <g id="Group">
                    <g id="Shape">
                        <path d="M49.4289011,29.1521209 C48.5500989,22.0466374 42.4796154,16.5281538 35.1413516,16.5281538 C27.8023297,16.5281538 21.7326044,22.0466374 20.8538022,29.1521209 L2.76518681,29.1521209 C1.79008791,29.1521209 1,29.9414505 1,30.9157912 C1,31.8916484 1.79008791,32.680978 2.76518681,32.680978 L22.3748352,32.680978 C22.5492308,32.6946264 22.5909341,32.684011 22.6341538,32.680978 L47.6477912,32.680978 C47.8237033,32.6946264 47.8638901,32.684011 47.9093846,32.680978 L67.519033,32.680978 C68.4918571,32.680978 69.2827033,31.8916484 69.2827033,30.9157912 C69.2834615,29.9414505 68.4926154,29.1521209 67.5197912,29.1521209 L49.4289011,29.1521209 Z M35.1413516,20.0577692 C40.5309341,20.0577692 45.0151758,23.9998681 45.8659231,29.1528791 L24.4167802,29.1528791 C25.2682857,23.9998681 29.7517692,20.0577692 35.1413516,20.0577692 L35.1413516,20.0577692 Z" fill="#5CAB62"></path>
                        <path d="M3.95486813,21.7061868 L14.9046374,26.2404725 C15.1252857,26.3337363 15.3542747,26.376956 15.5787143,26.376956 C16.2717473,26.376956 16.9283846,25.9667473 17.2096923,25.2866044 C17.5827473,24.3858132 17.1550989,23.3523297 16.2550659,22.980033 L5.30605495,18.444989 C4.40526374,18.0726923 3.3732967,18.4995824 2.99948352,19.3996154 C2.62718681,20.3011648 3.05407692,21.3338901 3.95486813,21.7061868 L3.95486813,21.7061868 Z" fill="#5CAB62"></path>
                        <path d="M42.5690879,14.7826813 C42.788978,14.8744286 43.0187253,14.9176484 43.2439231,14.9176484 C43.9346813,14.9176484 44.5920769,14.5074396 44.8726264,13.8280549 L49.4084286,2.87828571 C49.7807253,1.97749451 49.3553516,0.945527473 48.4538022,0.572472527 C47.5537692,0.199417582 46.521044,0.627065934 46.1472308,1.5270989 L41.6129451,12.4761099 C41.2398901,13.3776593 41.6698132,14.4096264 42.5690879,14.7826813 L42.5690879,14.7826813 Z" fill="#5CAB62"></path>
                        <path d="M25.4078022,13.8272967 C25.6898681,14.5066813 26.3472637,14.9168901 27.0387802,14.9168901 C27.2632198,14.9168901 27.492967,14.8736703 27.7128571,14.7819231 C28.6136484,14.4088681 29.0412967,13.3761429 28.6682418,12.4761099 L24.1331978,1.5270989 C23.7601429,0.627065934 22.7281758,0.200175824 21.8273846,0.572472527 C20.9265934,0.945527473 20.4997033,1.97749451 20.872,2.87828571 L25.4078022,13.8272967 L25.4078022,13.8272967 Z" fill="#5CAB62"></path>
                        <path d="M54.7032308,26.376956 C54.9291868,26.376956 55.1581758,26.3337363 55.3788242,26.2404725 L66.3270769,21.7061868 C67.2278681,21.3338901 67.6562747,20.3011648 67.2817033,19.4003736 C66.9094066,18.5003407 65.8759231,18.0734505 64.9774066,18.4457473 L54.0283956,22.9807912 C53.1276044,23.3530879 52.699956,24.3865714 53.0722527,25.2873626 C53.3528022,25.9667473 54.0101978,26.376956 54.7032308,26.376956 L54.7032308,26.376956 Z" fill="#5CAB62"></path>
                        <path d="M58.4868571,36.0976154 L11.7958462,36.0976154 C10.8215055,36.0976154 10.0314176,36.8869451 10.0314176,37.8612857 C10.0314176,38.8356264 10.8215055,39.6264725 11.7958462,39.6264725 L58.4876154,39.6264725 C59.461956,39.6264725 60.2512857,38.8356264 60.2512857,37.8612857 C60.2512857,36.8869451 59.461956,36.0976154 58.4868571,36.0976154 L58.4868571,36.0976154 Z" fill="#DDDDDD"></path>
                        <path d="M2.49853231,29.0976154 C1.13615912,29.0976154 0.0314175824,29.9028582 0.0314175824,30.8968418 C0.0314175824,31.8908255 1.13615912,32.6976153 2.49853231,32.6976153 L67.7853643,32.6976153 C69.1477375,32.6976153 70.2514188,31.8908255 70.2514188,30.8968418 C70.2514188,29.9028582 69.1477375,29.0976154 67.7843041,29.0976154 L2.49853231,29.0976154 Z" fill="#DDDDDD"></path>
                        <path d="M47.7729011,43.0453846 L22.5105604,43.0453846 C21.5362198,43.0453846 20.7461319,43.8362308 20.7461319,44.8082967 C20.7461319,45.7841538 21.5362198,46.5734835 22.5105604,46.5734835 L47.7721429,46.5734835 C48.7464835,46.5734835 49.5358132,45.7841538 49.5358132,44.8082967 C49.5365714,43.8362308 48.7472418,43.0453846 47.7729011,43.0453846 L47.7729011,43.0453846 Z" fill="#DDDDDD"></path>
                    </g>
                </g>
            </g>
        </g>
    </g>
</svg>