<svg width="118px" height="66px" viewBox="0 6 118 66" version="1.1" xmlns="http://www.w3.org/2000/svg" xmlns:xlink="http://www.w3.org/1999/xlink">
    <!-- Generator: Sketch 40 (33762) - http://www.bohemiancoding.com/sketch -->
    <desc>Created with Sketch.</desc>
    <defs></defs>
    <g id="Election-2016" stroke="none" stroke-width="1" fill="none" fill-rule="evenodd" transform="translate(0.000000, 6.371628)">
        <path d="M1.47444995,38.14 L9.61732402,38.14 C9.61732402,37.0199944 9.72709206,35.8900057 9.94663143,34.75 C10.1661708,33.6099943 10.5353906,32.5700047 11.0543018,31.63 C11.573213,30.6899953 12.261758,29.9300029 13.1199574,29.35 C13.9781567,28.7699971 15.0259425,28.48 16.2633462,28.48 C18.0994937,28.48 19.6063095,29.0499943 20.7838388,30.19 C21.9613682,31.3300057 22.550124,32.9199898 22.550124,34.96 C22.550124,36.2400064 22.2607356,37.379995 21.68195,38.38 C21.1031643,39.380005 20.3846826,40.279996 19.5264833,41.08 C18.6682839,41.880004 17.7202872,42.6099967 16.6824648,43.27 C15.6446423,43.9300033 14.6667089,44.5799968 13.7486351,45.22 C11.9524039,46.4600062 10.2460099,47.679994 8.6294018,48.88 C7.01279372,50.080006 5.60576705,51.3899929 4.40827958,52.81 C3.21079211,54.2300071 2.26279542,55.839991 1.56426106,57.64 C0.865726705,59.440009 0.516464765,61.5599878 0.516464765,64 L31.2917388,64 L31.2917388,56.68 L11.4734203,56.68 C12.5112428,55.2399928 13.7087123,53.9800054 15.0658648,52.9 C16.4230172,51.8199946 17.820065,50.8100047 19.25705,49.87 C20.6940349,48.9299953 22.1210194,47.9800048 23.5380462,47.02 C24.9550731,46.0599952 26.222395,44.9900059 27.34005,43.81 C28.4577049,42.6299941 29.3558071,41.2800076 30.0343833,39.76 C30.7129595,38.2399924 31.0522425,36.4200106 31.0522425,34.3 C31.0522425,32.2599898 30.663065,30.4200082 29.8846981,28.78 C29.1063312,27.1399918 28.0585454,25.7600056 26.7413092,24.64 C25.424073,23.5199944 23.8972994,22.660003 22.1609425,22.06 C20.4245857,21.459997 18.5984447,21.16 16.6824648,21.16 C14.1677411,21.16 11.9424436,21.5899957 10.0065055,22.45 C8.07056743,23.3100043 6.46396251,24.5099923 5.18664254,26.05 C3.90932258,27.5900077 2.95134697,29.3899897 2.31268699,31.45 C1.674027,33.5100103 1.39461745,35.739988 1.47444995,38.14 L1.47444995,38.14 Z M37.7752457,42.82 C37.7752457,42.0999964 37.7852246,41.2300051 37.8051827,40.21 C37.8251409,39.1899949 37.8949932,38.1400054 38.014742,37.06 C38.1344907,35.9799946 38.334069,34.9100053 38.6134827,33.85 C38.8928965,32.7899947 39.2820741,31.8400042 39.7810272,31 C40.2799803,30.1599958 40.9186307,29.4800026 41.6969975,28.96 C42.4753644,28.4399974 43.4433189,28.18 44.6008901,28.18 C45.7584614,28.18 46.7363948,28.4399974 47.5347198,28.96 C48.3330447,29.4800026 48.991653,30.1599958 49.5105642,31 C50.0294754,31.8400042 50.418653,32.7899947 50.6781087,33.85 C50.9375643,34.9100053 51.1371425,35.9799946 51.2768494,37.06 C51.4165563,38.1400054 51.4963876,39.1899949 51.5163457,40.21 C51.5363038,41.2300051 51.5462827,42.0999964 51.5462827,42.82 C51.5462827,44.020006 51.5063671,45.4699915 51.4265346,47.17 C51.3467021,48.8700085 51.0972293,50.5099921 50.6781087,52.09 C50.258988,53.6700079 49.580422,55.0199944 48.6423901,56.14 C47.7043583,57.2600056 46.3572051,57.82 44.6008901,57.82 C42.8844914,57.82 41.567275,57.2600056 40.6492012,56.14 C39.7311275,55.0199944 39.0625404,53.6700079 38.6434198,52.09 C38.2242992,50.5099921 37.9748263,48.8700085 37.8949938,47.17 C37.8151613,45.4699915 37.7752457,44.020006 37.7752457,42.82 L37.7752457,42.82 Z M29.2731272,42.82 C29.2731272,47.020021 29.6822626,50.5299859 30.5005457,53.35 C31.3188288,56.1700141 32.4264881,58.4199916 33.8235568,60.1 C35.2206255,61.7800084 36.8471883,62.9799964 38.7032938,63.7 C40.5593994,64.4200036 42.5252452,64.78 44.6008901,64.78 C46.7164513,64.78 48.7022549,64.4200036 50.5583605,63.7 C52.4144661,62.9799964 54.0510077,61.7800084 55.4680346,60.1 C56.8850614,58.4199916 58.0026996,56.1700141 58.8209827,53.35 C59.6392658,50.5299859 60.0484012,47.020021 60.0484012,42.82 C60.0484012,38.7399796 59.6392658,35.3100139 58.8209827,32.53 C58.0026996,29.7499861 56.8850614,27.5200084 55.4680346,25.84 C54.0510077,24.1599916 52.4144661,22.9600036 50.5583605,22.24 C48.7022549,21.5199964 46.7164513,21.16 44.6008901,21.16 C42.5252452,21.16 40.5593994,21.5199964 38.7032938,22.24 C36.8471883,22.9600036 35.2206255,24.1599916 33.8235568,25.84 C32.4264881,27.5200084 31.3188288,29.7499861 30.5005457,32.53 C29.6822626,35.3100139 29.2731272,38.7399796 29.2731272,42.82 L29.2731272,42.82 Z M80.2430711,64 L80.2430711,22 L73.4773007,22 C73.2378032,23.600008 72.7388576,24.9399946 71.9804488,26.02 C71.2220401,27.1000054 70.2940012,27.9699967 69.1963044,28.63 C68.0986075,29.2900033 66.8612224,29.7499987 65.4841118,30.01 C64.1070012,30.2700013 62.6800167,30.3800002 61.2031155,30.34 L61.2031155,36.76 L71.7409525,36.76 L71.7409525,64 L80.2430711,64 Z M102.653082,42.22 C103.73082,42.22 104.678817,42.4499977 105.4971,42.91 C106.315383,43.3700023 106.98397,43.9699963 107.502882,44.71 C108.021793,45.4500037 108.41097,46.2899953 108.670426,47.23 C108.929882,48.1700047 109.059608,49.139995 109.059608,50.14 C109.059608,51.1000048 108.919903,52.0399954 108.640489,52.96 C108.361075,53.8800046 107.941961,54.6999964 107.383133,55.42 C106.824306,56.1400036 106.155719,56.7199978 105.377352,57.16 C104.598985,57.6000022 103.690904,57.82 102.653082,57.82 C101.575343,57.82 100.617367,57.6000022 99.7791261,57.16 C98.9408848,56.7199978 98.232382,56.1300037 97.6535964,55.39 C97.0748108,54.6499963 96.6357387,53.8100047 96.3363668,52.87 C96.0369949,51.9299953 95.8873112,50.9800048 95.8873112,50.02 C95.8873112,48.9799948 96.027016,47.9900047 96.3064298,47.05 C96.5858435,46.1099953 97.0049578,45.2800036 97.5637853,44.56 C98.1226128,43.8399964 98.8311156,43.2700021 99.6893149,42.85 C100.547514,42.4299979 101.535427,42.22 102.653082,42.22 L102.653082,42.22 Z M108.760237,32.8 L116.843237,32.8 C116.60374,30.9199906 116.104794,29.2600072 115.346385,27.82 C114.587977,26.3799928 113.610043,25.1700049 112.412556,24.19 C111.215068,23.2099951 109.837978,22.4600026 108.281245,21.94 C106.724511,21.4199974 105.048054,21.16 103.251822,21.16 C100.258104,21.16 97.7234599,21.8199934 95.6478149,23.14 C93.57217,24.4600066 91.8757549,26.1699895 90.5585187,28.27 C89.2412824,30.3700105 88.2833068,32.719987 87.6845631,35.32 C87.0858194,37.920013 86.786452,40.519987 86.786452,43.12 C86.786452,45.8000134 87.0259459,48.4299871 87.5049409,51.01 C87.9839359,53.5900129 88.8421223,55.8999898 90.0795261,57.94 C91.3169298,59.9800102 92.9734293,61.6299937 95.0490742,62.89 C97.1247192,64.1500063 99.7391942,64.78 102.892578,64.78 C105.087972,64.78 107.083754,64.3900039 108.879985,63.61 C110.676217,62.8299961 112.222948,61.7500069 113.520226,60.37 C114.817504,58.9899931 115.815395,57.3700093 116.51393,55.51 C117.212464,53.6499907 117.561726,51.6400108 117.561726,49.48 C117.561726,47.7999916 117.302274,46.1400082 116.783363,44.5 C116.264452,42.8599918 115.446181,41.4000064 114.328526,40.12 C113.131039,38.7999934 111.674117,37.7500039 109.957719,36.97 C108.24132,36.1899961 106.485031,35.8 104.6888,35.8 C102.653071,35.8 100.856867,36.1599964 99.3001335,36.88 C97.7433998,37.6000036 96.3862676,38.7999916 95.2286964,40.48 L95.1089483,40.36 C95.1488645,39.1999942 95.3085271,37.8800074 95.5879409,36.4 C95.8673546,34.9199926 96.3064268,33.5300065 96.9051705,32.23 C97.5039142,30.9299935 98.3122062,29.8300045 99.3300705,28.93 C100.347935,28.0299955 101.615257,27.58 103.132074,27.58 C104.608975,27.58 105.846361,28.0999948 106.844267,29.14 C107.842173,30.1800052 108.480823,31.399993 108.760237,32.8 L108.760237,32.8 Z" id="2016" fill="#104F88" opacity="0.784340019" style="mix-blend-mode: multiply;"></path>
        <path d="M1.98748732,0.01 L1.98748732,25 L20.9176737,25 L20.9176737,20.38 L7.47095461,20.38 L7.47095461,14.255 L19.5555386,14.255 L19.5555386,9.985 L7.47095461,9.985 L7.47095461,4.63 L20.6382614,4.63 L20.6382614,0.01 L1.98748732,0.01 Z M21.6744153,0.01 L21.6744153,25 L26.6339845,25 L26.6339845,0.01 L21.6744153,0.01 Z M40.1389143,14.01 L32.0708829,14.01 C32.0941673,13.6599983 32.1698408,13.2633356 32.2979054,12.82 C32.42597,12.3766645 32.6471693,11.9566687 32.9615097,11.56 C33.2758502,11.1633314 33.6949645,10.8308347 34.2188653,10.5625 C34.742766,10.2941653 35.4005427,10.16 36.192215,10.16 C37.4030078,10.16 38.3052679,10.4866634 38.8990221,11.14 C39.4927763,11.7933366 39.9060696,12.7499937 40.1389143,14.01 L40.1389143,14.01 Z M32.0708829,17.16 L45.0984835,17.16 C45.1916214,15.759993 45.0752007,14.4183397 44.749218,13.135 C44.4232353,11.8516602 43.8935214,10.7083383 43.1600603,9.705 C42.4265993,8.70166165 41.489413,7.90250297 40.3484736,7.3075 C39.2075342,6.71249702 37.8686967,6.415 36.3319211,6.415 C34.9581369,6.415 33.7066149,6.65999755 32.5773177,7.15 C31.4480205,7.64000245 30.4759081,8.31082907 29.6609514,9.1625 C28.8459946,10.0141709 28.2173231,11.0233275 27.774918,12.19 C27.332513,13.3566725 27.1113137,14.6166599 27.1113137,15.97 C27.1113137,17.370007 27.3266919,18.6533275 27.7574548,19.82 C28.1882176,20.9866725 28.799426,21.9899958 29.5910983,22.83 C30.3827706,23.6700042 31.3490619,24.3174977 32.4900014,24.7725 C33.6309408,25.2275023 34.9115679,25.455 36.3319211,25.455 C38.3809552,25.455 40.1272649,24.988338 41.5709026,24.055 C43.0145403,23.121662 44.0856102,21.5700108 44.7841446,19.4 L40.4183267,19.4 C40.2553353,19.9600028 39.8129369,20.4908308 39.091118,20.9925 C38.3692992,21.4941692 37.5077864,21.745 36.5065538,21.745 C35.1094851,21.745 34.0384152,21.3833369 33.2933119,20.66 C32.5482086,19.936663 32.1407363,18.770008 32.0708829,17.16 L32.0708829,17.16 Z M57.7651763,13.275 L62.6199658,13.275 C62.5501124,12.1083275 62.2707028,11.0991709 61.7817288,10.2475 C61.2927547,9.39582907 60.6582622,8.68416952 59.8782322,8.1125 C59.0982021,7.54083047 58.2134052,7.1150014 57.2238149,6.835 C56.2342245,6.5549986 55.2039018,6.415 54.1328158,6.415 C52.6658937,6.415 51.3619824,6.65999755 50.221043,7.15 C49.0801035,7.64000245 48.1138122,8.32249562 47.3221399,9.1975 C46.5304676,10.0725044 45.9309013,11.1108273 45.5234229,12.3125 C45.1159445,13.5141727 44.9122084,14.814993 44.9122084,16.215 C44.9122084,17.5683401 45.1334076,18.8108277 45.5758127,19.9425 C46.0182178,21.0741723 46.6352472,22.0483292 47.4269195,22.865 C48.2185918,23.6816707 49.1790621,24.3174977 50.3083593,24.7725 C51.4376565,25.2275023 52.6775364,25.455 54.0280362,25.455 C56.4263375,25.455 58.3938464,24.8250063 59.930622,23.565 C61.4673976,22.3049937 62.3987627,20.4733453 62.7247454,18.07 L57.939809,18.07 C57.7768177,19.1900056 57.3751664,20.0824967 56.7348433,20.7475 C56.0945201,21.4125033 55.180618,21.745 53.9931096,21.745 C53.2247218,21.745 52.5727662,21.5700017 52.0372232,21.22 C51.5016802,20.8699982 51.0767449,20.4208361 50.7624044,19.8725 C50.4480639,19.3241639 50.2210437,18.71167 50.0813368,18.035 C49.9416299,17.3583299 49.8717775,16.6933366 49.8717775,16.04 C49.8717775,15.3633299 49.9416299,14.6808368 50.0813368,13.9925 C50.2210437,13.3041632 50.459706,12.6741695 50.7973309,12.1025 C51.1349559,11.5308305 51.5715333,11.0641685 52.1070763,10.7025 C52.6426193,10.3408315 53.306217,10.16 54.0978893,10.16 C56.2167768,10.16 57.4391936,11.1983229 57.7651763,13.275 L57.7651763,13.275 Z M69.2443667,6.905 L69.2443667,1.48 L64.2847975,1.48 L64.2847975,6.905 L61.2811148,6.905 L61.2811148,10.23 L64.2847975,10.23 L64.2847975,20.905 C64.2847975,21.8150046 64.4361444,22.5499972 64.7388426,23.11 C65.0415408,23.6700028 65.4548341,24.1016652 65.9787349,24.405 C66.5026356,24.7083349 67.108023,24.9124995 67.7949151,25.0175 C68.4818072,25.1225005 69.2094363,25.175 69.9778241,25.175 C70.4667981,25.175 70.9674069,25.1633335 71.4796654,25.14 C71.991924,25.1166666 72.4576065,25.0700004 72.8767272,25 L72.8767272,21.15 C72.6438824,21.1966669 72.399399,21.2316666 72.1432698,21.255 C71.8871405,21.2783335 71.619373,21.29 71.3399593,21.29 C70.501718,21.29 69.9428989,21.1500014 69.6634852,20.87 C69.3840714,20.5899986 69.2443667,20.0300042 69.2443667,19.19 L69.2443667,10.23 L72.8767272,10.23 L72.8767272,6.905 L69.2443667,6.905 Z M77.7897274,4.105 L77.7897274,0.01 L72.8301583,0.01 L72.8301583,4.105 L77.7897274,4.105 Z M72.8301583,6.905 L72.8301583,25 L77.7897274,25 L77.7897274,6.905 L72.8301583,6.905 Z M83.5409647,15.97 C83.5409647,15.2466631 83.6108171,14.5350035 83.7505239,13.835 C83.8902308,13.1349965 84.1288931,12.5166694 84.4665181,11.98 C84.804143,11.4433307 85.2523625,11.005835 85.81119,10.6675 C86.3700175,10.329165 87.0685413,10.16 87.9067826,10.16 C88.7450238,10.16 89.4493687,10.329165 90.0198384,10.6675 C90.5903082,11.005835 91.0443487,11.4433307 91.3819736,11.98 C91.7195986,12.5166694 91.9582609,13.1349965 92.0979678,13.835 C92.2376746,14.5350035 92.307527,15.2466631 92.307527,15.97 C92.307527,16.693337 92.2376746,17.3991632 92.0979678,18.0875 C91.9582609,18.7758368 91.7195986,19.3941639 91.3819736,19.9425 C91.0443487,20.4908361 90.5903082,20.9283317 90.0198384,21.255 C89.4493687,21.5816683 88.7450238,21.745 87.9067826,21.745 C87.0685413,21.745 86.3700175,21.5816683 85.81119,21.255 C85.2523625,20.9283317 84.804143,20.4908361 84.4665181,19.9425 C84.1288931,19.3941639 83.8902308,18.7758368 83.7505239,18.0875 C83.6108171,17.3991632 83.5409647,16.693337 83.5409647,15.97 L83.5409647,15.97 Z M78.5813955,15.97 C78.5813955,17.4166739 78.8025948,18.7233275 79.2449999,19.89 C79.6874049,21.0566725 80.3160764,22.0541625 81.1310332,22.8825 C81.9459899,23.7108375 82.9239234,24.3466644 84.0648628,24.79 C85.2058023,25.2333355 86.4864294,25.455 87.9067826,25.455 C89.3271358,25.455 90.6135839,25.2333355 91.7661656,24.79 C92.9187473,24.3466644 93.9025017,23.7108375 94.7174585,22.8825 C95.5324152,22.0541625 96.1610867,21.0566725 96.6034918,19.89 C97.0458969,18.7233275 97.2670962,17.4166739 97.2670962,15.97 C97.2670962,14.5233261 97.0458969,13.2108392 96.6034918,12.0325 C96.1610867,10.8541608 95.5324152,9.85083747 94.7174585,9.0225 C93.9025017,8.19416252 92.9187473,7.55250227 91.7661656,7.0975 C90.6135839,6.64249772 89.3271358,6.415 87.9067826,6.415 C86.4864294,6.415 85.2058023,6.64249772 84.0648628,7.0975 C82.9239234,7.55250227 81.9459899,8.19416252 81.1310332,9.0225 C80.3160764,9.85083747 79.6874049,10.8541608 79.2449999,12.0325 C78.8025948,13.2108392 78.5813955,14.5233261 78.5813955,15.97 L78.5813955,15.97 Z M97.9190581,6.905 L97.9190581,25 L102.878627,25 L102.878627,15.515 C102.878627,13.6716574 103.181321,12.347504 103.786717,11.5425 C104.392114,10.737496 105.370047,10.335 106.720547,10.335 C107.908055,10.335 108.734642,10.7024963 109.200332,11.4375 C109.666021,12.1725037 109.898862,13.2866592 109.898862,14.78 L109.898862,25 L114.858432,25 L114.858432,13.87 C114.858432,12.7499944 114.759474,11.7291713 114.561556,10.8075 C114.363638,9.88582872 114.020197,9.10416987 113.531223,8.4625 C113.042249,7.82083012 112.37283,7.31916847 111.522947,6.9575 C110.673063,6.59583152 109.58453,6.415 108.257315,6.415 C107.209513,6.415 106.185012,6.65416427 105.183779,7.1325 C104.182547,7.61083572 103.367602,8.37499475 102.738921,9.425 L102.634141,9.425 L102.634141,6.905 L97.9190581,6.905 Z" id="Election" fill="#C30D0D" opacity="0.60546875" style="mix-blend-mode: multiply;"></path>
    </g>
</svg>
