<?xml version="1.0" encoding="UTF-8"?>
<svg width="79px" height="74px" viewBox="0 0 79 74" version="1.1" xmlns="http://www.w3.org/2000/svg" xmlns:xlink="http://www.w3.org/1999/xlink">
    <!-- Generator: Sketch 40 (33762) - http://www.bohemiancoding.com/sketch -->
    <title>example_asset</title>
    <desc>Created with Sketch.</desc>
    <defs></defs>
    <g id="Scratch" stroke="none" stroke-width="1" fill="none" fill-rule="evenodd" opacity="0.75">
        <g id="homepage_draft" transform="translate(-267.000000, -1624.000000)" fill="#000000">
            <g id="Group-5" transform="translate(140.000000, 1624.000000)">
                <g id="example_asset" opacity="0.7" transform="translate(127.000000, 0.000000)">
                    <g id="photo">
                        <path d="M73.3571429,73.3571429 L5.64285714,73.3571429 C2.5263932,73.3571429 0,70.8307497 0,67.7142857 L0,5.64285714 C0,2.5263932 2.5263932,0 5.64285714,0 L73.3571429,0 C76.4736068,0 79,2.5263932 79,5.64285714 L79,67.7142857 C79,70.8307497 76.4736068,73.3571429 73.3571429,73.3571429 L73.3571429,73.3571429 Z M5.64285714,5.64285714 L5.64285714,67.7142857 L73.3571429,67.7142857 L73.3571429,5.64285714 L5.64285714,5.64285714 L5.64285714,5.64285714 Z M62.4946429,59.25 L15.6589286,59.25 C14.4315182,59.2609663 13.2598108,58.7384988 12.4476972,57.8181033 C11.6355835,56.8977079 11.2630755,55.6700645 11.4267857,54.4535714 C12.9785714,43.5910714 16.5053571,24.9696429 23.4178571,20.5964286 C25.0901523,19.505776 27.1714061,19.2456193 29.0607143,19.8910714 C32.7285714,21.1607143 34.7035714,26.6625 36.8196429,36.9607143 C38.1975035,34.9412578 40.3354118,33.5668882 42.7446429,33.1517857 C49.6571429,32.0232143 58.2625,39.2178571 66.0214286,52.9017857 C66.7774281,54.2112153 66.7774281,55.824499 66.0214286,57.1339286 C65.2906556,58.4015052 63.956986,59.201707 62.4946429,59.25 L62.4946429,59.25 Z M17.3517857,53.6071429 L60.0964286,53.6071429 C53.325,42.6035714 47.1178571,38.0892857 43.8732143,38.6535714 C40.6285714,39.2178571 40.0642857,43.0267857 39.6410714,45.425 C39.2178571,47.8232143 39.3589286,49.9392857 36.6785714,50.0803571 C33.9982143,50.2214286 33.575,48.3875 32.4464286,42.4625 C31.3178571,36.5375 29.4839286,26.8035714 27.3678571,25.1107143 L26.6625,25.1107143 C23.1357143,27.3678571 19.6089286,38.6535714 17.3517857,53.6071429 L17.3517857,53.6071429 Z M59.25,25.3928571 C54.5753041,25.3928571 50.7857143,21.6032673 50.7857143,16.9285714 C50.7857143,12.2538755 54.5753041,8.46428571 59.25,8.46428571 C63.9246959,8.46428571 67.7142857,12.2538755 67.7142857,16.9285714 C67.7142857,21.6032673 63.9246959,25.3928571 59.25,25.3928571 L59.25,25.3928571 Z M59.25,14.1071429 C57.691768,14.1071429 56.4285714,15.3703395 56.4285714,16.9285714 C56.4285714,18.4868034 57.691768,19.75 59.25,19.75 C60.808232,19.75 62.0714286,18.4868034 62.0714286,16.9285714 C62.0714286,15.3703395 60.808232,14.1071429 59.25,14.1071429 L59.25,14.1071429 Z" id="Shape"></path>
                    </g>
                </g>
            </g>
        </g>
    </g>
</svg>