<svg width="1440px" height="332px" viewBox="0 262 1440 332" version="1.1" xmlns="http://www.w3.org/2000/svg" xmlns:xlink="http://www.w3.org/1999/xlink">
    <!-- Generator: Sketch 40 (33762) - http://www.bohemiancoding.com/sketch -->
    <desc>Created with Sketch.</desc>
    <defs></defs>
    <text id="HELP-AMERICA" stroke="none" fill="none" font-family="HelveticaNeue-Bold, Helvetica Neue" font-size="100" font-weight="bold" line-spacing="100" letter-spacing="-3.33333325">
        <tspan x="257.885185" y="336.899353" fill="#D9D9D9">HELP AMERIC</tspan>
        <tspan x="913.718519" y="336.899353" letter-spacing="-3.70370364" fill="#D9D9D9">A</tspan>
    </text>
    <g id="VOTE" stroke="none" stroke-width="1" fill="none" fill-rule="evenodd" transform="translate(361.000000, 382.000000)">
        <path d="M227.243292,106.891343 C227.243292,98.0423853 228.231129,89.4759699 230.206833,81.1918395 C232.182537,72.9077092 235.334207,65.5179992 239.66194,59.0224879 C243.989672,52.5269766 249.634455,47.3494728 256.596459,43.4898211 C263.558463,39.6301695 272.025638,37.7003726 281.998238,37.7003726 C291.970839,37.7003726 300.438014,39.6301695 307.400018,43.4898211 C314.362022,47.3494728 320.006805,52.5269766 324.334537,59.0224879 C328.66227,65.5179992 331.81394,72.9077092 333.789644,81.1918395 C335.765348,89.4759699 336.753185,98.0423853 336.753185,106.891343 C336.753185,115.363749 335.765348,123.600687 333.789644,131.602403 C331.81394,139.60412 328.66227,146.805557 324.334537,153.206931 C320.006805,159.608304 314.362022,164.73874 307.400018,168.598392 C300.438014,172.458043 291.970839,174.38784 281.998238,174.38784 C272.025638,174.38784 263.558463,172.458043 256.596459,168.598392 C249.634455,164.73874 243.989672,159.608304 239.66194,153.206931 C235.334207,146.805557 232.182537,139.60412 230.206833,131.602403 C228.231129,123.600687 227.243292,115.363749 227.243292,106.891343 L227.243292,106.891343 Z M182.931299,106.891343 C182.931299,121.576846 185.189212,135.273697 189.705107,147.982307 C194.221001,160.690916 200.712502,171.751946 209.179804,181.165731 C217.647106,190.579515 228.042916,197.969225 240.367544,203.335083 C252.692173,208.70094 266.568932,211.383828 281.998238,211.383828 C297.615707,211.383828 311.539506,208.70094 323.770053,203.335083 C336.000601,197.969225 346.34937,190.579515 354.816673,181.165731 C363.283975,171.751946 369.775476,160.690916 374.29137,147.982307 C378.807265,135.273697 381.065178,121.576846 381.065178,106.891343 C381.065178,91.8292875 378.807265,77.8500272 374.29137,64.9531425 C369.775476,52.0562577 363.283975,40.806954 354.816673,31.2048938 C346.34937,21.6028336 336.000601,14.071919 323.770053,8.61192398 C311.539506,3.15192898 297.615707,0.421972426 281.998238,0.421972426 C266.568932,0.421972426 252.692173,3.15192898 240.367544,8.61192398 C228.042916,14.071919 217.647106,21.6028336 209.179804,31.2048938 C200.712502,40.806954 194.221001,52.0562577 189.705107,64.9531425 C185.189212,77.8500272 182.931299,91.8292875 182.931299,106.891343 L182.931299,106.891343 Z" fill="#299431"></path>
        <polygon id="Rectangle-3" fill-opacity="0.95" fill="#2A9432" style="mix-blend-mode: multiply;" points="0 4.04198236 46.1850534 4.04198236 110.330961 206.865234 64.1459075 206.865234"></polygon>
        <polygon id="Rectangle-3" fill-opacity="0.75" fill="#2A9432" style="mix-blend-mode: multiply;" transform="translate(127.008897, 105.453608) scale(-1, 1) translate(-127.008897, -105.453608) " points="71.8434164 4.04198236 118.02847 4.04198236 182.174377 206.865234 135.989324 206.865234"></polygon>
        <rect id="Rectangle-4" fill="#2A9432" opacity="0.75" style="mix-blend-mode: multiply;" x="387.441281" y="4.04198236" width="166.779359" height="38.510744"></rect>
        <rect id="Rectangle-4" fill="#2A9432" opacity="0.85" style="mix-blend-mode: multiply;" x="567.049822" y="4.04198236" width="151.384342" height="38.510744"></rect>
        <rect id="Rectangle-4" fill="#2A9432" opacity="0.85" style="mix-blend-mode: multiply;" x="567.049822" y="168.35449" width="153.950178" height="38.510744"></rect>
        <rect id="Rectangle-4" fill="#2A9432" opacity="0.5" style="mix-blend-mode: multiply;" x="567.049822" y="86.1982362" width="143.686833" height="33.3759781"></rect>
        <rect id="Rectangle-4" fill="#2A9432" style="mix-blend-mode: multiply;" transform="translate(471.104082, 105.462383) rotate(-270.000000) translate(-471.104082, -105.462383) " x="369.753548" y="82.3559371" width="202.701068" height="46.2128928"></rect>
        <rect id="Rectangle-4" fill="#2A9432" opacity="0.802530317" style="mix-blend-mode: multiply;" transform="translate(590.142349, 105.453608) rotate(-270.000000) translate(-590.142349, -105.453608) " x="488.791815" y="82.3471618" width="202.701068" height="46.2128928"></rect>
    </g>
</svg>
