<svg width="79px" height="71px" viewBox="359 4814 79 71" version="1.1" xmlns="http://www.w3.org/2000/svg" xmlns:xlink="http://www.w3.org/1999/xlink">
    <!-- Generator: Sketch 40 (33762) - http://www.bohemiancoding.com/sketch -->
    <desc>Created with Sketch.</desc>
    <defs></defs>
    <g id="Group-8" stroke="none" stroke-width="1" fill="none" fill-rule="evenodd" transform="translate(359.000000, 4814.000000)">
        <path d="M17.0684135,17.8475275 L17.0684135,0.678791209 L11.5658654,0.678791209 L11.5658654,17.6017582 C11.5658654,18.0464857 11.5483415,18.5087613 11.5132933,18.9885989 C11.478245,19.4684365 11.3731018,19.9131573 11.1978606,20.3227747 C11.0226193,20.7323922 10.7363962,21.0659328 10.3391827,21.3234066 C9.94196917,21.5808804 9.38120554,21.7096154 8.656875,21.7096154 C8.00264096,21.7096154 7.47108378,21.6042868 7.0621875,21.3936264 C6.65329122,21.182966 6.3320204,20.8962381 6.09836538,20.5334341 C5.86471037,20.1706301 5.70115431,19.7317608 5.60769231,19.2168132 C5.5142303,18.7018656 5.4675,18.1401129 5.4675,17.5315385 L5.4675,16.408022 L0.490673077,16.408022 L0.490673077,18.5848352 C0.490673077,19.9658311 0.724324587,21.1420006 1.19163462,22.1133791 C1.65894464,23.0847576 2.27812114,23.8805738 3.04918269,24.5008516 C3.82024424,25.1211295 4.6964374,25.5775535 5.67778846,25.8701374 C6.65913952,26.1627212 7.67552359,26.309011 8.72697115,26.309011 C10.5962113,26.309011 12.0798984,26.0222831 13.1780769,25.4488187 C14.2762555,24.8753543 15.1174009,24.1614603 15.7015385,23.3071154 C16.285676,22.4527705 16.6595184,21.5340708 16.8230769,20.550989 C16.9866354,19.5679072 17.0684135,18.6667623 17.0684135,17.8475275 L17.0684135,17.8475275 Z M23.7275481,13.3183516 C23.7275481,12.2182363 23.8502152,11.1532469 24.0955529,10.1233516 C24.3408907,9.09345639 24.732257,8.17475678 25.2696635,7.36722527 C25.8070701,6.55969376 26.5080246,5.91601888 27.3725481,5.43618132 C28.2370717,4.95634375 29.2885035,4.71642857 30.5268751,4.71642857 C31.7652466,4.71642857 32.8166784,4.95634375 33.681202,5.43618132 C34.5457255,5.91601888 35.2466801,6.55969376 35.7840866,7.36722527 C36.3214931,8.17475678 36.7128594,9.09345639 36.9581972,10.1233516 C37.2035349,11.1532469 37.326202,12.2182363 37.326202,13.3183516 C37.326202,14.3716536 37.2035349,15.3956818 36.9581972,16.390467 C36.7128594,17.3852522 36.3214931,18.2805455 35.7840866,19.0763736 C35.2466801,19.8722018 34.5457255,20.5100251 33.681202,20.9898626 C32.8166784,21.4697002 31.7652466,21.7096154 30.5268751,21.7096154 C29.2885035,21.7096154 28.2370717,21.4697002 27.3725481,20.9898626 C26.5080246,20.5100251 25.8070701,19.8722018 25.2696635,19.0763736 C24.732257,18.2805455 24.3408907,17.3852522 24.0955529,16.390467 C23.8502152,15.3956818 23.7275481,14.3716536 23.7275481,13.3183516 L23.7275481,13.3183516 Z M18.2250001,13.3183516 C18.2250001,15.1440751 18.5053819,16.8468877 19.0661539,18.4268407 C19.6269259,20.0067936 20.4330236,21.3819172 21.4844712,22.5522527 C22.5359188,23.7225883 23.8268434,24.6412879 25.3572837,25.3083791 C26.8877241,25.9754704 28.6109039,26.309011 30.5268751,26.309011 C32.4662117,26.309011 34.1952329,25.9754704 35.7139904,25.3083791 C37.232748,24.6412879 38.5178313,23.7225883 39.5692789,22.5522527 C40.6207265,21.3819172 41.4268242,20.0067936 41.9875962,18.4268407 C42.5483682,16.8468877 42.8287501,15.1440751 42.8287501,13.3183516 C42.8287501,11.4458148 42.5483682,9.70789263 41.9875962,8.10453297 C41.4268242,6.5011733 40.6207265,5.10264333 39.5692789,3.9089011 C38.5178313,2.71515887 37.232748,1.77890449 35.7139904,1.10010989 C34.1952329,0.421315287 32.4662117,0.0819230769 30.5268751,0.0819230769 C28.6109039,0.0819230769 26.8877241,0.421315287 25.3572837,1.10010989 C23.8268434,1.77890449 22.5359188,2.71515887 21.4844712,3.9089011 C20.4330236,5.10264333 19.6269259,6.5011733 19.0661539,8.10453297 C18.5053819,9.70789263 18.2250001,11.4458148 18.2250001,13.3183516 L18.2250001,13.3183516 Z M43.9853367,0.678791209 L43.9853367,25.7472527 L49.4878847,25.7472527 L49.4878847,0.678791209 L43.9853367,0.678791209 Z M51.7309617,0.678791209 L51.7309617,25.7472527 L56.883029,25.7472527 L56.883029,8.96472527 L56.9531252,8.96472527 L67.362404,25.7472527 L72.8649521,25.7472527 L72.8649521,0.678791209 L67.7128848,0.678791209 L67.7128848,17.4964286 L67.6427886,17.4964286 L57.1984617,0.678791209 L51.7309617,0.678791209 Z" id="JOIN" fill="#D9D9D9" style="mix-blend-mode: darken;"></path>
        <path d="M38.7242308,52.9613187 L38.7242308,25.2479121 L28.9419231,25.2479121 L28.9419231,52.9613187 C28.9419231,56.2902731 28.2773143,58.7349373 26.9480769,60.2953846 C25.6188395,61.855832 23.2096328,62.636044 19.7203846,62.636044 C17.7265285,62.636044 16.1376982,62.3551676 14.9538462,61.7934066 C13.7699941,61.2316455 12.8457726,60.5034477 12.1811538,59.6087912 C11.5165351,58.7141347 11.0803857,57.6842549 10.8726923,56.5191209 C10.664999,55.3539868 10.5611538,54.1680646 10.5611538,52.9613187 L10.5611538,25.2479121 L0.778846154,25.2479121 L0.778846154,52.9613187 C0.778846154,59.0366604 2.42998349,63.5306814 5.73230769,66.4435165 C9.0346319,69.3563516 13.6972776,70.8127473 19.7203846,70.8127473 C25.6604143,70.8127473 30.3126755,69.3459487 33.6773077,66.4123077 C37.0419399,63.4786667 38.7242308,58.9950485 38.7242308,52.9613187 L38.7242308,52.9613187 Z M50.9754807,55.0210989 L41.5047114,55.0210989 C41.4631728,57.7674863 41.9616293,60.1393307 43.0000961,62.1367033 C44.0385628,64.1340759 45.4404719,65.7777225 47.2058653,67.0676923 C48.9712587,68.3576621 51.006623,69.3043193 53.3120191,69.9076923 C55.6174153,70.5110653 57.9954684,70.8127473 60.4462499,70.8127473 C63.4785728,70.8127473 66.1473922,70.4590512 68.4527884,69.7516484 C70.7581845,69.0442455 72.6897037,68.055977 74.2474038,66.7868132 C75.8051039,65.5176493 76.9785537,64.0092395 77.7677884,62.2615385 C78.5570231,60.5138374 78.9516345,58.620523 78.9516345,56.5815385 C78.9516345,54.0848227 78.4220244,52.0354659 77.3627884,50.4334066 C76.3035523,48.8313473 75.0470264,47.5517997 73.593173,46.5947253 C72.1393196,45.6376509 70.6751034,44.9406615 69.2004807,44.5037363 C67.7258579,44.066811 66.5731771,43.765129 65.7424038,43.5986813 C62.9593129,42.8912785 60.7058739,42.3087202 58.9820191,41.850989 C57.2581644,41.3932578 55.9081779,40.9355334 54.9320191,40.4778022 C53.9558604,40.020071 53.3016362,39.5207353 52.9693268,38.9797802 C52.6370175,38.4388251 52.4708653,37.7314329 52.4708653,36.8575824 C52.4708653,35.900508 52.6785555,35.1098932 53.0939422,34.4857143 C53.5093289,33.8615353 54.038939,33.341394 54.6827884,32.9252747 C55.3266377,32.5091554 56.043169,32.2178763 56.8324038,32.0514286 C57.6216385,31.8849809 58.4108613,31.8017582 59.2000961,31.8017582 C60.4047175,31.8017582 61.5158602,31.9057865 62.5335576,32.1138462 C63.551255,32.3219058 64.4547075,32.6756019 65.2439422,33.1749451 C66.0331769,33.6742882 66.6666321,34.3608748 67.1443268,35.2347253 C67.6220215,36.1085758 67.9024033,37.2112754 67.9854807,38.5428571 L77.4562499,38.5428571 C77.4562499,35.9629175 76.9681779,33.7679211 75.9920191,31.9578022 C75.0158604,30.1476833 73.6970274,28.6600791 72.0354807,27.4949451 C70.3739339,26.329811 68.4735683,25.4871821 66.3343268,24.967033 C64.1950854,24.4468838 61.9624154,24.1868132 59.6362499,24.1868132 C57.6423938,24.1868132 55.6485676,24.4572867 53.6547114,24.9982418 C51.6608553,25.5391968 49.8747193,26.371423 48.2962499,27.4949451 C46.7177805,28.6184672 45.4404856,30.0228487 44.4643268,31.7081319 C43.4881681,33.393415 43.0000961,35.3803549 43.0000961,37.669011 C43.0000961,39.7079955 43.384323,41.4452675 44.1527884,42.8808791 C44.9212538,44.3164907 45.9285514,45.5128157 47.1747114,46.4698901 C48.4208715,47.4269645 49.8331651,48.2071765 51.4116345,48.8105495 C52.990104,49.4139224 54.6100878,49.9236609 56.2716345,50.3397802 C57.8916426,50.7975114 59.4908574,51.2136245 61.0693268,51.5881319 C62.6477963,51.9626392 64.0600898,52.3995579 65.3062499,52.8989011 C66.55241,53.3982443 67.5597076,54.0224138 68.328173,54.7714286 C69.0966384,55.5204433 69.4808653,56.498309 69.4808653,57.7050549 C69.4808653,58.828577 69.190099,59.7544286 68.6085576,60.4826374 C68.0270162,61.2108461 67.3001004,61.7830016 66.4277884,62.1991209 C65.5554763,62.6152402 64.6208703,62.8961165 63.6239422,63.0417582 C62.6270142,63.1874 61.6924081,63.2602198 60.8200961,63.2602198 C59.5323973,63.2602198 58.2862559,63.1041774 57.0816345,62.7920879 C55.8770131,62.4799984 54.8281775,62.0014684 53.9350961,61.3564835 C53.0420147,60.7114986 52.3254834,59.8688697 51.7854807,58.8285714 C51.245478,57.7882732 50.9754807,56.5191284 50.9754807,55.0210989 L50.9754807,55.0210989 Z" id="US" fill="#2A9432" style="mix-blend-mode: multiply;" opacity="0.711870336"></path>
    </g>
</svg>
