<?xml version="1.0" encoding="UTF-8"?>
<svg width="59px" height="70px" viewBox="0 0 59 70" version="1.1" xmlns="http://www.w3.org/2000/svg" xmlns:xlink="http://www.w3.org/1999/xlink">
    <!-- Generator: Sketch 40 (33762) - http://www.bohemiancoding.com/sketch -->
    <title>network_asset</title>
    <desc>Created with Sketch.</desc>
    <defs></defs>
    <g id="Scratch" stroke="none" stroke-width="1" fill="none" fill-rule="evenodd">
        <g id="playbook_draft" transform="translate(-63.000000, -1600.000000)">
            <g id="network_asset" transform="translate(63.000000, 1600.000000)">
                <g id="Group">
                    <g id="network_asset">
                        <path d="M47.2,35.2447368 L39.2039474,34.6236842 C39.1263158,31.5184211 37.8842105,28.7236842 35.7881579,26.7052632 L42.3092105,18.7092105 C43.0855263,19.0973684 44.0171053,19.4078947 45.0263158,19.4078947 C48.2092105,19.4078947 50.8486842,16.7684211 50.8486842,13.5855263 C50.8486842,10.4026316 48.2092105,7.76315789 45.0263158,7.76315789 C41.8434211,7.76315789 39.2039474,10.4026316 39.2039474,13.5855263 C39.2039474,14.9828947 39.6697368,16.225 40.5236842,17.2342105 L34.0026316,25.2302632 C32.1394737,23.9881579 29.9657895,23.2894737 27.5592105,23.2894737 C25.4631579,23.2894737 23.4447368,23.8328947 21.8144737,24.8421053 L13.5855263,13.3526316 C15.0605263,11.9552632 15.9144737,9.93684211 15.9144737,7.76315789 C15.9144737,3.49342105 12.4210526,0 8.15131579,0 C3.88157895,0 0.388157895,3.49342105 0.388157895,7.76315789 C0.388157895,12.0328947 3.88157895,15.5263158 8.15131579,15.5263158 C9.39342105,15.5263158 10.6355263,15.2157895 11.6447368,14.6723684 L19.8736842,26.1618421 C17.4671053,28.2578947 15.9144737,31.4407895 15.9144737,34.9342105 C15.9144737,36.875 16.3802632,38.7381579 17.3118421,40.3684211 L6.75394737,47.4328947 C6.05526316,46.8894737 5.27894737,46.5789474 4.34736842,46.5789474 C2.17368421,46.5789474 0.465789474,48.2868421 0.465789474,50.4605263 C0.465789474,52.6342105 2.17368421,54.3421053 4.34736842,54.3421053 C6.52105263,54.3421053 8.22894737,52.6342105 8.22894737,50.4605263 C8.22894737,50.0723684 8.15131579,49.7618421 8.07368421,49.3736842 L18.6315789,42.3092105 C20.8052632,44.8710526 23.9881579,46.5789474 27.6368421,46.5789474 C28.8789474,46.5789474 30.0434211,46.4236842 31.1302632,46.0355263 L35.1671053,55.5065789 C32.9934211,56.9039474 31.5184211,59.3105263 31.5184211,62.1052632 C31.5184211,66.375 35.0118421,69.8684211 39.2815789,69.8684211 C43.5513158,69.8684211 47.0447368,66.375 47.0447368,62.1052632 C47.0447368,57.8355263 43.5513158,54.3421053 39.2815789,54.3421053 C38.5828947,54.3421053 37.9618421,54.4197368 37.3407895,54.575 L33.3039474,45.1039474 C36.3315789,43.3960526 38.5052632,40.4460526 39.1263158,36.9526316 L47.1223684,37.5736842 C47.3552632,40.4460526 49.8394737,42.6973684 52.7894737,42.6973684 C55.9723684,42.6973684 58.6118421,40.0578947 58.6118421,36.875 C58.6118421,33.6921053 55.9723684,31.0526316 52.7894737,31.0526316 C50.15,31.0526316 47.8986842,32.8381579 47.2,35.2447368 Z" id="Shape" fill="#DDDDDD"></path>
                        <ellipse id="Oval-2" fill="#5CAB62" cx="27.5592105" cy="35.3223684" rx="12.0328947" ry="12.0328947"></ellipse>
                    </g>
                </g>
            </g>
        </g>
    </g>
</svg>