<?xml version="1.0" encoding="UTF-8"?>
<svg width="104px" height="74px" viewBox="0 0 104 74" version="1.1" xmlns="http://www.w3.org/2000/svg" xmlns:xlink="http://www.w3.org/1999/xlink">
    <!-- Generator: Sketch 40 (33762) - http://www.bohemiancoding.com/sketch -->
    <title>playbook_asset</title>
    <desc>Created with Sketch.</desc>
    <defs></defs>
    <g id="Scratch" stroke="none" stroke-width="1" fill="none" fill-rule="evenodd">
        <g id="homepage_draft" transform="translate(-668.000000, -1627.000000)" fill="#787878">
            <path d="M755.119448,1689.51758 C751.547538,1689.51758 746.948756,1689.00691 742.319528,1687.06665 C731.695137,1682.61179 723.906409,1684.57973 723.831677,1684.60049 C723.22275,1684.76241 722.564002,1684.62955 722.061637,1684.24067 C721.559272,1683.85179 721.264496,1683.25255 721.26588,1682.61733 L721.348916,1640.42423 C721.348916,1639.28803 721.059675,1637.92901 719.684054,1637.92901 C717.81022,1637.92901 717.716113,1640.01182 717.716113,1640.42838 L717.509908,1682.61041 C717.508524,1683.21657 717.235891,1683.79228 716.766741,1684.17839 C716.29759,1684.56451 715.684512,1684.72504 715.085272,1684.61018 C715.003621,1684.59357 706.535385,1683.11 697.041661,1687.06388 C687.424768,1691.07172 677.949035,1688.96677 677.550465,1688.87544 C676.620467,1688.66508 675.963103,1687.83472 675.963103,1686.8812 L675.963103,1634.02081 C675.963103,1633.44371 676.208058,1632.89153 676.635691,1632.50403 C677.064707,1632.11653 677.64042,1631.92832 678.211981,1631.98506 C678.322695,1631.99474 689.395477,1633.05621 695.059881,1630.45582 C706.062083,1625.40726 712.966483,1627.54681 713.257108,1627.64092 C714.332417,1627.98967 714.921969,1629.14386 714.571836,1630.21778 C714.224471,1631.28894 713.075813,1631.87434 712.007423,1631.53805 C711.867647,1631.49791 706.116056,1629.88287 696.76626,1634.17443 C691.767524,1636.47036 683.899912,1636.40946 680.053985,1636.21571 L680.053985,1685.14576 C682.921477,1685.5125 689.244629,1685.88062 695.466755,1683.28576 C703.042359,1680.1318 709.927385,1680.05845 713.428714,1680.30756 L713.622464,1640.41454 C713.622464,1636.6046 716.171653,1633.8326 719.68267,1633.8326 C723.127259,1633.8326 725.441181,1636.48143 725.441181,1640.42423 L725.363681,1680.21622 C728.869163,1679.84809 735.654546,1679.8301 743.902737,1683.28991 C750.151158,1685.90968 756.452167,1685.52772 759.311356,1685.15268 L759.311356,1636.10638 C755.465429,1636.29875 747.597817,1636.36103 742.600464,1634.0651 C733.177321,1629.74171 727.413274,1631.41211 727.353765,1631.42872 C726.282607,1631.75532 725.13395,1631.15747 724.797656,1630.0877 C724.461362,1629.01654 725.039843,1627.87757 726.108233,1627.5302 C726.397473,1627.4361 733.303258,1625.29516 744.302692,1630.34511 C749.96848,1632.9455 761.042646,1631.88541 761.15336,1631.87434 C761.730456,1631.8176 762.297865,1632.00581 762.728266,1632.3947 C763.158667,1632.7822 763.400853,1633.333 763.400853,1633.9101 L763.400853,1686.8812 C763.400853,1687.83334 762.743489,1688.65954 761.814876,1688.87544 C761.611439,1688.92387 758.961223,1689.51758 755.119448,1689.51758 L755.119448,1689.51758 L755.119448,1689.51758 Z M685.602139,1644.56493 C688.311864,1644.56493 692.773637,1644.29368 696.937867,1642.81012 C704.722444,1640.0395 710.425597,1640.38133 710.482338,1640.38548 C711.237961,1640.43668 711.885638,1639.87066 711.938227,1639.12057 C711.990816,1638.3691 711.423407,1637.71727 710.671936,1637.66468 C710.418678,1637.64669 704.37923,1637.26473 696.023092,1640.24017 C690.159403,1642.32851 683.367101,1641.76387 683.299288,1641.75833 C682.549201,1641.69052 681.886301,1642.24824 681.822641,1642.99833 C681.756212,1643.74842 682.309782,1644.40993 683.061253,1644.47636 C683.166431,1644.48466 684.124107,1644.56493 685.602139,1644.56493 L685.602139,1644.56493 L685.602139,1644.56493 Z M685.602139,1652.75915 C688.311864,1652.75915 692.773637,1652.4879 696.937867,1651.00295 C704.722444,1648.23233 710.425597,1648.57555 710.482338,1648.57831 C711.237961,1648.62952 711.885638,1648.06349 711.938227,1647.31202 C711.990816,1646.56055 711.423407,1645.90872 710.671936,1645.85613 C710.418678,1645.83814 704.37923,1645.45618 696.023092,1648.43162 C690.159403,1650.52134 683.367101,1649.95532 683.299288,1649.94978 C682.549201,1649.88336 681.886301,1650.43831 681.822641,1651.18978 C681.756212,1651.93987 682.309782,1652.60138 683.061253,1652.66781 C683.166431,1652.6775 684.124107,1652.75915 685.602139,1652.75915 L685.602139,1652.75915 L685.602139,1652.75915 Z M685.602139,1660.95199 C688.311864,1660.95199 692.773637,1660.68074 696.937867,1659.19717 C704.722444,1656.42655 710.425597,1656.76838 710.482338,1656.77253 C711.237961,1656.82374 711.885638,1656.25771 711.938227,1655.50763 C711.990816,1654.75615 711.423407,1654.10433 710.671936,1654.05174 C710.418678,1654.03375 704.37923,1653.65178 696.023092,1656.62722 C690.159403,1658.71556 683.367101,1658.15092 683.299288,1658.14539 C682.549201,1658.08173 681.886301,1658.63391 681.822641,1659.38538 C681.756212,1660.13547 682.309782,1660.79699 683.061253,1660.86341 C683.166431,1660.87033 684.124107,1660.95199 685.602139,1660.95199 L685.602139,1660.95199 L685.602139,1660.95199 Z M685.602139,1669.14482 C688.311864,1669.14482 692.773637,1668.87219 696.937867,1667.38724 C704.722444,1664.61662 710.425597,1664.95983 710.482338,1664.9626 C711.237961,1665.0138 711.885638,1664.44916 711.938227,1663.69631 C711.990816,1662.94484 711.423407,1662.29301 710.671936,1662.24042 C710.418678,1662.22243 704.37923,1661.84046 696.023092,1664.8159 C690.159403,1666.90286 683.367101,1666.34099 683.299288,1666.33545 C682.549201,1666.26487 681.886301,1666.82536 681.822641,1667.57407 C681.756212,1668.32554 682.309782,1668.98705 683.061253,1669.0521 C683.166431,1669.06317 684.124107,1669.14482 685.602139,1669.14482 L685.602139,1669.14482 L685.602139,1669.14482 Z M685.602139,1677.33765 C688.311864,1677.33765 692.773637,1677.06502 696.937867,1675.58007 C704.722444,1672.80945 710.425597,1673.15267 710.482338,1673.15543 C711.237961,1673.20664 711.885638,1672.642 711.938227,1671.89053 C711.990816,1671.13906 711.423407,1670.48723 710.671936,1670.43325 C710.418678,1670.41526 704.37923,1670.0333 696.023092,1673.01012 C690.159403,1675.09846 683.367101,1674.53382 683.299288,1674.52829 C682.549201,1674.46047 681.886301,1675.0182 681.822641,1675.76828 C681.756212,1676.51837 682.309782,1677.18127 683.061253,1677.24493 C683.166431,1677.256 684.124107,1677.33765 685.602139,1677.33765 L685.602139,1677.33765 L685.602139,1677.33765 Z M753.68155,1644.56493 C755.159581,1644.56493 756.120025,1644.48466 756.225204,1644.47498 C756.975291,1644.40855 757.528861,1643.74703 757.4652,1642.99695 C757.398772,1642.24547 756.742791,1641.69052 755.987168,1641.75695 C755.919356,1641.76248 749.128437,1642.32713 743.264748,1640.23878 C734.907226,1637.26335 728.869163,1637.64531 728.614521,1637.6633 C727.864433,1637.71589 727.297024,1638.36772 727.349613,1639.11919 C727.402203,1639.87066 728.044344,1640.43392 728.806886,1640.3841 C728.865011,1640.38133 734.526647,1640.02289 742.349974,1642.80873 C746.51282,1644.29368 750.973209,1644.56493 753.68155,1644.56493 L753.68155,1644.56493 L753.68155,1644.56493 Z M753.68155,1652.75915 C755.159581,1652.75915 756.120025,1652.6775 756.225204,1652.6692 C756.975291,1652.60277 757.528861,1651.94125 757.4652,1651.19116 C757.398772,1650.43969 756.742791,1649.88612 755.987168,1649.95117 C755.919356,1649.95532 749.128437,1650.52134 743.264748,1648.433 C734.907226,1645.45756 728.869163,1645.83953 728.614521,1645.85752 C727.864433,1645.91011 727.297024,1646.56194 727.349613,1647.31341 C727.402203,1648.06488 728.044344,1648.62952 728.806886,1648.5797 C728.865011,1648.57693 734.526647,1648.21849 742.349974,1651.00433 C746.51282,1652.48652 750.973209,1652.75915 753.68155,1652.75915 L753.68155,1652.75915 L753.68155,1652.75915 Z M753.68155,1660.95199 C755.159581,1660.95199 756.120025,1660.87172 756.225204,1660.86203 C756.975291,1660.7956 757.528861,1660.13409 757.4652,1659.384 C757.398772,1658.63253 756.742791,1658.08034 755.987168,1658.144 C755.919356,1658.14954 749.128437,1658.71418 743.264748,1656.62584 C734.905843,1653.6504 728.867779,1654.03236 728.613137,1654.05035 C727.863049,1654.10294 727.29564,1654.75477 727.348229,1655.50624 C727.400819,1656.25771 728.04296,1656.82235 728.804118,1656.77115 C728.862243,1656.76838 734.525263,1656.40994 742.34859,1659.19578 C746.51282,1660.68074 750.973209,1660.95199 753.68155,1660.95199 L753.68155,1660.95199 L753.68155,1660.95199 Z M753.68155,1669.14482 C755.159581,1669.14482 756.120025,1669.06317 756.225204,1669.05625 C756.975291,1668.98844 757.528861,1668.3283 757.4652,1667.57683 C757.398772,1666.82813 756.742791,1666.27318 755.987168,1666.3396 C755.919356,1666.34237 749.128437,1666.90701 743.264748,1664.81867 C734.907226,1661.84323 728.869163,1662.22381 728.614521,1662.24319 C727.864433,1662.29578 727.297024,1662.9476 727.349613,1663.69908 C727.402203,1664.44916 728.044344,1665.01519 728.806886,1664.96675 C728.865011,1664.96398 734.526647,1664.60416 742.349974,1667.39139 C746.51282,1668.87219 750.973209,1669.14482 753.68155,1669.14482 L753.68155,1669.14482 L753.68155,1669.14482 Z M753.68155,1677.33765 C755.159581,1677.33765 756.120025,1677.256 756.225204,1677.24908 C756.975291,1677.18127 757.528861,1676.52114 757.4652,1675.77105 C757.398772,1675.02096 756.742791,1674.46601 755.987168,1674.53244 C755.919356,1674.53521 749.128437,1675.09985 743.264748,1673.01289 C734.907226,1670.03745 728.869163,1670.41803 728.614521,1670.43741 C727.864433,1670.48861 727.297024,1671.14321 727.349613,1671.89468 C727.402203,1672.64338 728.044344,1673.20802 728.806886,1673.15959 C728.865011,1673.15682 734.526647,1672.797 742.349974,1675.58422 C746.51282,1677.06779 750.973209,1677.33765 753.68155,1677.33765 L753.68155,1677.33765 L753.68155,1677.33765 Z M718.990708,1701 C721.577263,1701 723.802614,1699.41541 724.738147,1697.16514 L768.975302,1697.16514 C770.292799,1697.16514 771.362573,1696.09814 771.362573,1694.77787 L771.362573,1640.37994 C771.362573,1639.06106 770.295567,1637.99267 768.975302,1637.99267 C767.655038,1637.99267 766.586648,1639.06106 766.586648,1640.37994 L766.586648,1692.3906 L722.826947,1692.3906 C721.508067,1692.3906 720.438293,1693.45761 720.438293,1694.77926 C720.438293,1695.57778 719.787848,1696.22961 718.98794,1696.22961 C718.188031,1696.22961 717.538971,1695.57778 717.538971,1694.77926 C717.538971,1693.46038 716.471965,1692.3906 715.151701,1692.3906 L672.775924,1692.3906 L672.775924,1640.37994 C672.775924,1639.06106 671.707534,1637.99267 670.38727,1637.99267 C669.069774,1637.99267 668,1639.06106 668,1640.37994 L668,1694.77649 C668,1696.0926 669.06839,1697.16376 670.38727,1697.16376 L713.2405,1697.16376 C714.180185,1699.41541 716.404152,1701 718.990708,1701 L718.990708,1701 L718.990708,1701 Z" id="playbook_asset"></path>
        </g>
    </g>
</svg>