<svg width="124px" height="80px" viewBox="271 543 124 80" version="1.1" xmlns="http://www.w3.org/2000/svg" xmlns:xlink="http://www.w3.org/1999/xlink">
    <!-- Generator: Sketch 40 (33762) - http://www.bohemiancoding.com/sketch -->
    <desc>Created with Sketch.</desc>
    <defs></defs>
    <g id="reg-icon" stroke="none" stroke-width="1" fill="none" fill-rule="evenodd" transform="translate(273.000000, 543.000000)">
        <path d="M0.931853445,76.5903614 L67.573899,76.5903614" id="Line" stroke="#5CAB62" stroke-width="3" stroke-linecap="round"></path>
        <path d="M119.903883,10.5722892 C121.467985,9.0060241 121.467985,6.65662651 119.903883,5.09036145 L115.993626,1.1746988 C115.211575,0.391566265 114.429524,0 113.256447,0 L113.256447,0 C112.08337,0 111.301319,0.391566265 110.519267,1.1746988 L107.391062,4.30722892 L107.391062,4.30722892 C106.609011,4.30722892 106.217985,3.91566265 105.435934,3.91566265 C104.262857,3.91566265 103.480806,4.30722892 102.698755,5.09036145 L98.3974725,9.39759036 L95.2692674,6.26506024 C94.4872161,5.48192771 93.3141392,5.48192771 92.5320879,6.26506024 L72.9808058,25.8433735 C72.1987545,26.626506 72.1987545,27.8012048 72.9808058,28.5843373 C72.9808058,29.3674699 73.7628571,29.3674699 74.1538828,29.3674699 C74.5449084,29.3674699 75.3269597,29.3674699 75.7179853,28.9759036 L93.7051648,10.5722892 L95.2692674,12.1385542 L59.685934,47.7710843 C59.2949084,48.1626506 59.2949084,48.5542169 58.9038828,48.9457831 L51.0833699,64.6084337 C50.3013187,66.1746988 50.6923443,67.7409639 51.8654212,69.3072289 C52.6474725,70.0903614 53.4295238,70.4819277 54.6026007,70.4819277 C55.384652,70.4819277 55.7756776,70.4819277 56.1667033,70.0903614 L71.8077289,62.2590361 C72.1987545,62.2590361 72.5897802,61.8674699 72.9808058,61.4759036 L115.993626,18.4036145 C117.166703,17.2289157 117.557729,15.2710843 116.775678,13.7048193 L116.775678,13.7048193 L119.903883,10.5722892 L119.903883,10.5722892 Z M113.256447,3.91566265 L117.166703,7.8313253 L114.038498,10.9638554 L110.128242,7.04819277 L113.256447,3.91566265 L113.256447,3.91566265 Z M54.6026007,66.5662651 L61.6410622,52.8614458 L68.6795238,59.9096386 L54.6026007,66.5662651 L54.6026007,66.5662651 Z M71.8077289,57.1686747 L63.9872161,49.3373494 L94.4872161,18.7951807 L102.307729,26.626506 L71.8077289,57.1686747 L71.8077289,57.1686747 Z M105.044908,23.8855422 L97.2243956,16.0542169 L105.435934,7.8313253 L113.256447,15.6626506 L105.044908,23.8855422 L105.044908,23.8855422 Z" id="Shape" fill="#DDDDDD"></path>
    </g>
</svg>
