<svg width="59px" height="51px" viewBox="334 1743 59 51" version="1.1" xmlns="http://www.w3.org/2000/svg" xmlns:xlink="http://www.w3.org/1999/xlink">
    <!-- Generator: Sketch 40 (33762) - http://www.bohemiancoding.com/sketch -->
    <desc>Created with Sketch.</desc>
    <defs>
        <path d="M15.272125,12.8403429 L3.577875,12.8403429 C1.704475,12.8403429 0.181975,14.3652429 0.181975,16.2500571 L0.181975,32.2422 C0.181975,34.1255571 1.704475,35.6533714 3.577875,35.6533714 L3.595275,35.6533714 L3.595275,46.9833857 C3.595275,48.8674714 5.069925,50.3945571 6.896925,50.3945571 L11.9538,50.3945571 C13.777175,50.3945571 15.256175,48.8682 15.256175,46.9833857 L15.256175,35.6533714 L15.27285,35.6533714 C17.1477,35.6533714 18.669475,34.1270143 18.669475,32.2422 L18.669475,16.2500571 C18.666575,14.3652429 17.146975,12.8403429 15.272125,12.8403429 L15.272125,12.8403429 Z" id="path-1"></path>
        <mask id="mask-2" maskContentUnits="userSpaceOnUse" maskUnits="objectBoundingBox" x="0" y="0" width="18.4875" height="37.5542143" fill="white">
            <use xlink:href="#path-1"></use>
        </mask>
        <ellipse id="path-3" cx="9.425" cy="6.17318571" rx="5.539" ry="5.56628571"></ellipse>
        <mask id="mask-4" maskContentUnits="userSpaceOnUse" maskUnits="objectBoundingBox" x="0" y="0" width="11.078" height="11.1325714" fill="white">
            <use xlink:href="#path-3"></use>
        </mask>
    </defs>
    <g id="Group" stroke="none" stroke-width="1" fill="none" fill-rule="evenodd" transform="translate(334.000000, 1743.000000)">
        <g transform="translate(19.575000, 0.000000)" stroke="#5CAB62" stroke-width="6">
            <use id="Shape" mask="url(#mask-2)" xlink:href="#path-1"></use>
            <use id="Oval" mask="url(#mask-4)" xlink:href="#path-3"></use>
        </g>
        <g transform="translate(42.050000, 3.642857)" id="Shape" fill="#DDDDDD">
            <path d="M13.042025,10.5264 L3.022525,10.5264 C1.4123,10.5264 0.110925,11.8356429 0.110925,13.4494286 L0.110925,27.1553143 C0.110925,28.7712857 1.4123,30.0783429 3.022525,30.0783429 L3.03775,30.0783429 L3.03775,39.7858286 C3.03775,41.4003429 4.30215,42.7074 5.86235,42.7074 L10.198575,42.7074 C11.760225,42.7074 13.0239,41.4003429 13.0239,39.7858286 L13.0239,30.0776143 L13.039125,30.0776143 C14.647175,30.0776143 15.949275,28.7683714 15.949275,27.1531286 L15.949275,13.4479714 C15.950725,11.8356429 14.648625,10.5264 13.042025,10.5264 L13.042025,10.5264 Z"></path>
            <path d="M8.033,0.0451714286 C10.6517,0.0451714286 12.77885,2.18061429 12.77885,4.81367143 C12.77885,7.44891429 10.6517,9.58508571 8.033,9.58508571 C5.410675,9.58508571 3.2857,7.44891429 3.2857,4.81367143 C3.2857,2.18061429 5.410675,0.0451714286 8.033,0.0451714286 L8.033,0.0451714286 Z"></path>
        </g>
        <g transform="translate(0.000000, 3.642857)" fill="#DDDDDD">
            <path d="M12.928925,10.5264 L2.909425,10.5264 C1.3021,10.5264 0.000725,11.8356429 0.000725,13.4479714 L0.000725,27.1538571 C0.000725,28.7691 1.3021,30.0783429 2.909425,30.0783429 L2.92465,30.0783429 L2.92465,39.7843714 C2.92465,41.4003429 4.1905,42.7074 5.75215,42.7074 L10.086925,42.7074 C11.647125,42.7074 12.911525,41.4003429 12.911525,39.7843714 L12.911525,30.0776143 L12.92675,30.0776143 C14.53335,30.0776143 15.83545,28.7683714 15.83545,27.1531286 L15.83545,13.4479714 C15.83545,11.8356429 14.535525,10.5264 12.928925,10.5264 L12.928925,10.5264 Z" id="Shape"></path>
            <ellipse id="Oval" cx="7.91845" cy="4.81512857" rx="4.74585" ry="4.76922857"></ellipse>
        </g>
    </g>
</svg>
