<svg width="213" height="69" viewBox="0 0 213 69" xmlns="http://www.w3.org/2000/svg"><title>color-transparent-tight</title><g fill="none" fill-rule="evenodd"><path d="M165.584 37.072c0 2.208-.372 4.308-1.116 6.3-.744 1.992-1.8 3.732-3.168 5.22a15.63 15.63 0 0 1-4.86 3.564c-1.872.888-3.936 1.332-6.192 1.332-1.536 0-2.892-.156-4.068-.468a15.724 15.724 0 0 1-3.276-1.26v16.704h-10.656v-46.8h10.368v2.808c1.392-1.152 2.784-2.004 4.176-2.556 1.392-.552 3.072-.828 5.04-.828 2.016 0 3.864.408 5.544 1.224a13.492 13.492 0 0 1 4.356 3.348c1.224 1.416 2.172 3.096 2.844 5.04.672 1.944 1.008 4.068 1.008 6.372zm-10.656.072c0-2.448-.54-4.356-1.62-5.724-1.08-1.368-2.556-2.052-4.428-2.052-1.248 0-2.328.216-3.24.648-.912.432-1.824 1.176-2.736 2.232V43.12c.72.816 1.584 1.368 2.592 1.656 1.008.288 2.016.432 3.024.432 1.68 0 3.168-.648 4.464-1.944 1.296-1.296 1.944-3.336 1.944-6.12zm14.424 15.768V.136h10.656v52.776h-10.656zm28.816-8.64h14.112v8.64h-28.728l-.36-1.296 14.472-21.312H184.56v-8.64h27.72l.36 1.368-14.472 21.24z" fill="#F0343E"/><path d="M19 53.704h-1.944L.064 21.664h11.808l6.408 15.408 6.408-15.408H36.28L19 53.704zm49.912-16.416c0 2.208-.372 4.284-1.116 6.228a15.073 15.073 0 0 1-3.276 5.148c-1.44 1.488-3.204 2.664-5.292 3.528-2.088.864-4.452 1.296-7.092 1.296-2.64 0-5.004-.432-7.092-1.296-2.088-.864-3.852-2.04-5.292-3.528a15.537 15.537 0 0 1-3.312-5.148c-.768-1.944-1.152-4.02-1.152-6.228s.384-4.296 1.152-6.264a15.064 15.064 0 0 1 3.312-5.148c1.44-1.464 3.204-2.628 5.292-3.492 2.088-.864 4.452-1.296 7.092-1.296 2.64 0 5.004.432 7.092 1.296 2.088.864 3.852 2.028 5.292 3.492a14.63 14.63 0 0 1 3.276 5.148c.744 1.968 1.116 4.056 1.116 6.264zm-10.183 9.628l-6.626-4.821-6.637 4.821 2.534-7.8-6.632-4.81h8.2l2.535-7.806 2.523 7.806h8.206l-6.637 4.81 2.534 7.8zm28.127-16.828v11.16c0 1.344.24 2.28.72 2.808s1.128.792 1.944.792a6.15 6.15 0 0 0 1.26-.144c.456-.096.948-.216 1.476-.36l2.448 7.992a55.654 55.654 0 0 1-4.068.828c-1.32.216-2.652.324-3.996.324-1.536 0-2.94-.192-4.212-.576a7.802 7.802 0 0 1-3.312-1.98c-.936-.936-1.656-2.22-2.16-3.852-.504-1.632-.756-3.672-.756-6.12V30.088h-6.84v-1.512l6.84-6.912v-4.752l10.656-6.12v10.872h8.28v8.424h-8.28zm32.2 4.608c-.192-1.872-.792-3.264-1.8-4.176-1.008-.912-2.256-1.368-3.744-1.368-1.584 0-2.88.468-3.888 1.404-1.008.936-1.632 2.316-1.872 4.14h11.304zm9.288 1.44c0 .48-.012 1.2-.036 2.16-.024.96-.084 1.704-.18 2.232H107.68c.336 1.776 1.104 3.06 2.304 3.852 1.2.792 3.048 1.188 5.544 1.188 1.296 0 2.784-.156 4.464-.468 1.68-.312 3.36-.708 5.04-1.188l1.008 7.848a60.2 60.2 0 0 1-6.048 1.26c-2.016.312-3.864.468-5.544.468-3.072 0-5.7-.432-7.884-1.296-2.184-.864-3.972-2.028-5.364-3.492a13.934 13.934 0 0 1-3.096-5.112c-.672-1.944-1.008-3.996-1.008-6.156 0-2.064.348-4.08 1.044-6.048a15.013 15.013 0 0 1 3.132-5.22c1.392-1.512 3.108-2.736 5.148-3.672 2.04-.936 4.404-1.404 7.092-1.404 2.448 0 4.608.396 6.48 1.188 1.872.792 3.42 1.872 4.644 3.24 1.224 1.368 2.148 2.964 2.772 4.788.624 1.824.936 3.768.936 5.832z" fill="#1F75E7"/></g></svg>